<mxfile host="app.diagrams.net" modified="2022-08-05T08:05:08.529Z" agent="5.0 (Windows NT 10.0; Win64; x64) AppleWebKit/537.36 (KHTML, like Gecko) Chrome/103.0.5060.134 Safari/537.36 Edg/103.0.1264.77" etag="6p_bufX-8Jas86t3gB01" version="20.2.3" type="github">
  <diagram id="ottksRULG6ciqNUr__1Q" name="第 1 页">
    <mxGraphModel dx="1422" dy="754" grid="1" gridSize="10" guides="1" tooltips="1" connect="1" arrows="1" fold="1" page="1" pageScale="1" pageWidth="827" pageHeight="1169" math="0" shadow="0">
      <root>
        <mxCell id="0" />
        <mxCell id="1" parent="0" />
        <mxCell id="wCgD_rgEjFfEsgJ52uTu-3" value="" style="edgeStyle=orthogonalEdgeStyle;rounded=0;orthogonalLoop=1;jettySize=auto;html=1;" parent="1" source="wCgD_rgEjFfEsgJ52uTu-1" target="wCgD_rgEjFfEsgJ52uTu-2" edge="1">
          <mxGeometry relative="1" as="geometry" />
        </mxCell>
        <mxCell id="wCgD_rgEjFfEsgJ52uTu-5" value="" style="edgeStyle=orthogonalEdgeStyle;rounded=0;orthogonalLoop=1;jettySize=auto;html=1;" parent="1" source="wCgD_rgEjFfEsgJ52uTu-1" target="wCgD_rgEjFfEsgJ52uTu-4" edge="1">
          <mxGeometry relative="1" as="geometry" />
        </mxCell>
        <mxCell id="wCgD_rgEjFfEsgJ52uTu-7" value="" style="edgeStyle=orthogonalEdgeStyle;rounded=0;orthogonalLoop=1;jettySize=auto;html=1;" parent="1" source="wCgD_rgEjFfEsgJ52uTu-1" target="wCgD_rgEjFfEsgJ52uTu-6" edge="1">
          <mxGeometry relative="1" as="geometry" />
        </mxCell>
        <mxCell id="wCgD_rgEjFfEsgJ52uTu-9" value="" style="edgeStyle=orthogonalEdgeStyle;rounded=0;orthogonalLoop=1;jettySize=auto;html=1;" parent="1" source="wCgD_rgEjFfEsgJ52uTu-1" target="wCgD_rgEjFfEsgJ52uTu-8" edge="1">
          <mxGeometry relative="1" as="geometry" />
        </mxCell>
        <mxCell id="wCgD_rgEjFfEsgJ52uTu-1" value="直接签约客户" style="rounded=0;whiteSpace=wrap;html=1;" parent="1" vertex="1">
          <mxGeometry x="320" y="90" width="120" height="60" as="geometry" />
        </mxCell>
        <mxCell id="wCgD_rgEjFfEsgJ52uTu-11" value="" style="edgeStyle=orthogonalEdgeStyle;rounded=0;orthogonalLoop=1;jettySize=auto;html=1;" parent="1" source="wCgD_rgEjFfEsgJ52uTu-2" target="wCgD_rgEjFfEsgJ52uTu-10" edge="1">
          <mxGeometry relative="1" as="geometry" />
        </mxCell>
        <mxCell id="wCgD_rgEjFfEsgJ52uTu-2" value="洗钱风险等级划分" style="rounded=0;whiteSpace=wrap;html=1;" parent="1" vertex="1">
          <mxGeometry x="160" y="230" width="120" height="60" as="geometry" />
        </mxCell>
        <mxCell id="wCgD_rgEjFfEsgJ52uTu-13" value="" style="edgeStyle=orthogonalEdgeStyle;rounded=0;orthogonalLoop=1;jettySize=auto;html=1;" parent="1" source="wCgD_rgEjFfEsgJ52uTu-4" target="wCgD_rgEjFfEsgJ52uTu-12" edge="1">
          <mxGeometry relative="1" as="geometry" />
        </mxCell>
        <mxCell id="wCgD_rgEjFfEsgJ52uTu-15" value="满足条件" style="edgeLabel;html=1;align=center;verticalAlign=middle;resizable=0;points=[];" parent="wCgD_rgEjFfEsgJ52uTu-13" vertex="1" connectable="0">
          <mxGeometry x="0.64" relative="1" as="geometry">
            <mxPoint as="offset" />
          </mxGeometry>
        </mxCell>
        <mxCell id="wCgD_rgEjFfEsgJ52uTu-4" value="风险等级持续评估" style="rounded=0;whiteSpace=wrap;html=1;" parent="1" vertex="1">
          <mxGeometry x="320" y="230" width="120" height="60" as="geometry" />
        </mxCell>
        <mxCell id="wCgD_rgEjFfEsgJ52uTu-24" value="" style="edgeStyle=orthogonalEdgeStyle;rounded=0;orthogonalLoop=1;jettySize=auto;html=1;" parent="1" source="wCgD_rgEjFfEsgJ52uTu-6" target="wCgD_rgEjFfEsgJ52uTu-23" edge="1">
          <mxGeometry relative="1" as="geometry" />
        </mxCell>
        <mxCell id="wCgD_rgEjFfEsgJ52uTu-6" value="证件到期" style="whiteSpace=wrap;html=1;rounded=0;" parent="1" vertex="1">
          <mxGeometry x="470" y="230" width="120" height="60" as="geometry" />
        </mxCell>
        <mxCell id="wCgD_rgEjFfEsgJ52uTu-36" value="" style="edgeStyle=orthogonalEdgeStyle;rounded=0;orthogonalLoop=1;jettySize=auto;html=1;" parent="1" source="wCgD_rgEjFfEsgJ52uTu-8" target="wCgD_rgEjFfEsgJ52uTu-35" edge="1">
          <mxGeometry relative="1" as="geometry" />
        </mxCell>
        <mxCell id="wCgD_rgEjFfEsgJ52uTu-8" value="营业执照到期" style="whiteSpace=wrap;html=1;rounded=0;" parent="1" vertex="1">
          <mxGeometry x="660" y="230" width="120" height="60" as="geometry" />
        </mxCell>
        <mxCell id="wCgD_rgEjFfEsgJ52uTu-10" value="创建客户时生成待办" style="whiteSpace=wrap;html=1;rounded=0;" parent="1" vertex="1">
          <mxGeometry x="160" y="335" width="120" height="60" as="geometry" />
        </mxCell>
        <mxCell id="wCgD_rgEjFfEsgJ52uTu-16" style="edgeStyle=orthogonalEdgeStyle;rounded=0;orthogonalLoop=1;jettySize=auto;html=1;entryX=0.5;entryY=0;entryDx=0;entryDy=0;" parent="1" source="wCgD_rgEjFfEsgJ52uTu-12" target="wCgD_rgEjFfEsgJ52uTu-17" edge="1">
          <mxGeometry relative="1" as="geometry">
            <mxPoint x="380" y="440" as="targetPoint" />
          </mxGeometry>
        </mxCell>
        <mxCell id="wCgD_rgEjFfEsgJ52uTu-12" value="定时任务待办:&lt;br&gt;checkEvaluationTodo" style="whiteSpace=wrap;html=1;rounded=0;" parent="1" vertex="1">
          <mxGeometry x="325" y="340" width="110" height="50" as="geometry" />
        </mxCell>
        <mxCell id="wCgD_rgEjFfEsgJ52uTu-43" value="" style="edgeStyle=orthogonalEdgeStyle;rounded=0;orthogonalLoop=1;jettySize=auto;html=1;exitX=0.25;exitY=1;exitDx=0;exitDy=0;" parent="1" source="wCgD_rgEjFfEsgJ52uTu-17" target="wCgD_rgEjFfEsgJ52uTu-42" edge="1">
          <mxGeometry relative="1" as="geometry" />
        </mxCell>
        <mxCell id="wCgD_rgEjFfEsgJ52uTu-17" value="满足条件生成待办和提醒" style="whiteSpace=wrap;html=1;" parent="1" vertex="1">
          <mxGeometry x="320" y="460" width="120" height="60" as="geometry" />
        </mxCell>
        <mxCell id="wCgD_rgEjFfEsgJ52uTu-27" style="edgeStyle=orthogonalEdgeStyle;rounded=0;orthogonalLoop=1;jettySize=auto;html=1;" parent="1" source="wCgD_rgEjFfEsgJ52uTu-19" target="wCgD_rgEjFfEsgJ52uTu-17" edge="1">
          <mxGeometry relative="1" as="geometry" />
        </mxCell>
        <mxCell id="wCgD_rgEjFfEsgJ52uTu-31" style="edgeStyle=orthogonalEdgeStyle;rounded=0;orthogonalLoop=1;jettySize=auto;html=1;exitX=0.5;exitY=0;exitDx=0;exitDy=0;entryX=0.5;entryY=1;entryDx=0;entryDy=0;" parent="1" source="wCgD_rgEjFfEsgJ52uTu-19" target="wCgD_rgEjFfEsgJ52uTu-30" edge="1">
          <mxGeometry relative="1" as="geometry" />
        </mxCell>
        <mxCell id="wCgD_rgEjFfEsgJ52uTu-39" style="edgeStyle=orthogonalEdgeStyle;rounded=0;orthogonalLoop=1;jettySize=auto;html=1;entryX=0.5;entryY=1;entryDx=0;entryDy=0;" parent="1" source="wCgD_rgEjFfEsgJ52uTu-19" target="wCgD_rgEjFfEsgJ52uTu-37" edge="1">
          <mxGeometry relative="1" as="geometry" />
        </mxCell>
        <mxCell id="wCgD_rgEjFfEsgJ52uTu-19" value="&lt;span style=&quot;color: rgb(51, 51, 51); font-family: &amp;quot;Source Sans Pro&amp;quot;, &amp;quot;Helvetica Neue&amp;quot;, Helvetica, Arial, sans-serif; font-size: 14px; text-align: start; background-color: rgb(255, 255, 255);&quot;&gt;定时任务检查提醒checkAllAmlRemind&lt;/span&gt;" style="rounded=0;whiteSpace=wrap;html=1;" parent="1" vertex="1">
          <mxGeometry x="465" y="560" width="130" height="60" as="geometry" />
        </mxCell>
        <mxCell id="wCgD_rgEjFfEsgJ52uTu-22" style="edgeStyle=orthogonalEdgeStyle;rounded=0;orthogonalLoop=1;jettySize=auto;html=1;entryX=0;entryY=0.5;entryDx=0;entryDy=0;" parent="1" source="wCgD_rgEjFfEsgJ52uTu-21" target="wCgD_rgEjFfEsgJ52uTu-17" edge="1">
          <mxGeometry relative="1" as="geometry" />
        </mxCell>
        <mxCell id="wCgD_rgEjFfEsgJ52uTu-21" value="重新复核删除待办和提醒" style="rounded=0;whiteSpace=wrap;html=1;" parent="1" vertex="1">
          <mxGeometry x="150" y="560" width="140" height="50" as="geometry" />
        </mxCell>
        <mxCell id="wCgD_rgEjFfEsgJ52uTu-26" value="" style="edgeStyle=orthogonalEdgeStyle;rounded=0;orthogonalLoop=1;jettySize=auto;html=1;entryX=0.5;entryY=0;entryDx=0;entryDy=0;" parent="1" source="wCgD_rgEjFfEsgJ52uTu-23" target="wCgD_rgEjFfEsgJ52uTu-30" edge="1">
          <mxGeometry relative="1" as="geometry">
            <mxPoint x="530" y="460" as="targetPoint" />
          </mxGeometry>
        </mxCell>
        <mxCell id="wCgD_rgEjFfEsgJ52uTu-23" value="定时任务:&lt;br&gt;&lt;span style=&quot;color: rgb(51, 51, 51); font-family: &amp;quot;Source Sans Pro&amp;quot;, &amp;quot;Helvetica Neue&amp;quot;, Helvetica, Arial, sans-serif; font-size: 14px; text-align: start; background-color: rgb(255, 255, 255);&quot;&gt;checkCertificateTodo&lt;/span&gt;" style="whiteSpace=wrap;html=1;rounded=0;" parent="1" vertex="1">
          <mxGeometry x="470" y="330" width="120" height="60" as="geometry" />
        </mxCell>
        <mxCell id="wCgD_rgEjFfEsgJ52uTu-30" value="检查证件日期过期则生成待办和提醒" style="rounded=0;whiteSpace=wrap;html=1;" parent="1" vertex="1">
          <mxGeometry x="470" y="460" width="120" height="60" as="geometry" />
        </mxCell>
        <mxCell id="wCgD_rgEjFfEsgJ52uTu-38" value="" style="edgeStyle=orthogonalEdgeStyle;rounded=0;orthogonalLoop=1;jettySize=auto;html=1;" parent="1" source="wCgD_rgEjFfEsgJ52uTu-35" target="wCgD_rgEjFfEsgJ52uTu-37" edge="1">
          <mxGeometry relative="1" as="geometry" />
        </mxCell>
        <mxCell id="wCgD_rgEjFfEsgJ52uTu-35" value="定时任务:&lt;br&gt;&lt;span style=&quot;color: rgb(51, 51, 51); font-family: &amp;quot;Source Sans Pro&amp;quot;, &amp;quot;Helvetica Neue&amp;quot;, Helvetica, Arial, sans-serif; font-size: 14px; text-align: start; background-color: rgb(249, 249, 249);&quot;&gt;checkEnterprise&lt;/span&gt;" style="whiteSpace=wrap;html=1;rounded=0;" parent="1" vertex="1">
          <mxGeometry x="660" y="330" width="120" height="60" as="geometry" />
        </mxCell>
        <mxCell id="wCgD_rgEjFfEsgJ52uTu-37" value="生成待办和提醒" style="whiteSpace=wrap;html=1;rounded=0;" parent="1" vertex="1">
          <mxGeometry x="660" y="460" width="120" height="60" as="geometry" />
        </mxCell>
        <mxCell id="wCgD_rgEjFfEsgJ52uTu-41" style="edgeStyle=orthogonalEdgeStyle;rounded=0;orthogonalLoop=1;jettySize=auto;html=1;" parent="1" source="wCgD_rgEjFfEsgJ52uTu-40" target="wCgD_rgEjFfEsgJ52uTu-10" edge="1">
          <mxGeometry relative="1" as="geometry" />
        </mxCell>
        <mxCell id="wCgD_rgEjFfEsgJ52uTu-40" value="等级划分后删除等级待办" style="rounded=0;whiteSpace=wrap;html=1;" parent="1" vertex="1">
          <mxGeometry x="160" y="470" width="120" height="60" as="geometry" />
        </mxCell>
        <mxCell id="wCgD_rgEjFfEsgJ52uTu-45" value="" style="edgeStyle=orthogonalEdgeStyle;rounded=0;orthogonalLoop=1;jettySize=auto;html=1;" parent="1" source="wCgD_rgEjFfEsgJ52uTu-42" target="wCgD_rgEjFfEsgJ52uTu-44" edge="1">
          <mxGeometry relative="1" as="geometry" />
        </mxCell>
        <mxCell id="wCgD_rgEjFfEsgJ52uTu-47" value="" style="edgeStyle=orthogonalEdgeStyle;rounded=0;orthogonalLoop=1;jettySize=auto;html=1;exitX=0.5;exitY=1;exitDx=0;exitDy=0;" parent="1" source="wCgD_rgEjFfEsgJ52uTu-44" target="wCgD_rgEjFfEsgJ52uTu-46" edge="1">
          <mxGeometry relative="1" as="geometry" />
        </mxCell>
        <mxCell id="dIB8aLwUcw55asb0xoOj-2" value="" style="edgeStyle=orthogonalEdgeStyle;rounded=0;orthogonalLoop=1;jettySize=auto;html=1;" edge="1" parent="1" source="wCgD_rgEjFfEsgJ52uTu-42" target="dIB8aLwUcw55asb0xoOj-1">
          <mxGeometry relative="1" as="geometry" />
        </mxCell>
        <mxCell id="wCgD_rgEjFfEsgJ52uTu-42" value="查询邮箱" style="whiteSpace=wrap;html=1;" parent="1" vertex="1">
          <mxGeometry x="290" y="630" width="120" height="60" as="geometry" />
        </mxCell>
        <mxCell id="wCgD_rgEjFfEsgJ52uTu-44" value="用户管理页面查询邮箱" style="whiteSpace=wrap;html=1;" parent="1" vertex="1">
          <mxGeometry x="170" y="740" width="130" height="60" as="geometry" />
        </mxCell>
        <mxCell id="wCgD_rgEjFfEsgJ52uTu-46" value="&lt;b&gt;直接上级&lt;/b&gt;&lt;br&gt;组织机构查询主岗对应的审批组长作为直接上级" style="whiteSpace=wrap;html=1;" parent="1" vertex="1">
          <mxGeometry x="70" y="650" width="120" height="60" as="geometry" />
        </mxCell>
        <mxCell id="dIB8aLwUcw55asb0xoOj-1" value="用户字典查询风控邮箱:&lt;br&gt;key=ComplianceRisk" style="whiteSpace=wrap;html=1;" vertex="1" parent="1">
          <mxGeometry x="370" y="740" width="140" height="60" as="geometry" />
        </mxCell>
      </root>
    </mxGraphModel>
  </diagram>
</mxfile>
